<svg xmlns="http://www.w3.org/2000/svg" width="800" height="450" viewBox="0 0 800 450">
  <defs>
    <linearGradient id="bg1" x1="0%" y1="0%" x2="100%" y2="100%">
      <stop offset="0%" style="stop-color:#0ea5e9;stop-opacity:0.15"/>
      <stop offset="100%" style="stop-color:#06b6d4;stop-opacity:0.25"/>
    </linearGradient>
  </defs>
  <rect width="800" height="450" fill="url(#bg1)"/>
  <!-- Docker whale body -->
  <g transform="translate(400,200)" opacity="0.6">
    <rect x="-120" y="-20" width="30" height="25" rx="4" fill="#0ea5e9"/>
    <rect x="-85" y="-20" width="30" height="25" rx="4" fill="#0ea5e9"/>
    <rect x="-50" y="-20" width="30" height="25" rx="4" fill="#0ea5e9"/>
    <rect x="-120" y="-50" width="30" height="25" rx="4" fill="#0ea5e9"/>
    <rect x="-85" y="-50" width="30" height="25" rx="4" fill="#0ea5e9"/>
    <rect x="-50" y="-50" width="30" height="25" rx="4" fill="#0ea5e9"/>
    <rect x="-85" y="-80" width="30" height="25" rx="4" fill="#0ea5e9"/>
    <ellipse cx="-30" cy="30" rx="140" ry="50" fill="#0ea5e9"/>
    <circle cx="70" cy="15" r="6" fill="white"/>
  </g>
  <!-- Decorative dots -->
  <circle cx="650" cy="80" r="40" fill="#0ea5e9" opacity="0.08"/>
  <circle cx="700" cy="350" r="60" fill="#06b6d4" opacity="0.08"/>
  <circle cx="120" cy="380" r="30" fill="#0ea5e9" opacity="0.06"/>
</svg>
