<svg xmlns="http://www.w3.org/2000/svg" width="800" height="450" viewBox="0 0 800 450">
  <defs>
    <linearGradient id="bg4" x1="0%" y1="0%" x2="100%" y2="100%">
      <stop offset="0%" style="stop-color:#3b82f6;stop-opacity:0.18"/>
      <stop offset="100%" style="stop-color:#6366f1;stop-opacity:0.22"/>
    </linearGradient>
  </defs>
  <rect width="800" height="450" fill="url(#bg4)"/>
  <!-- K8s wheel -->
  <g transform="translate(400,225)" opacity="0.5">
    <circle cx="0" cy="0" r="80" fill="none" stroke="#3b82f6" stroke-width="3"/>
    <circle cx="0" cy="0" r="20" fill="#3b82f6" opacity="0.4"/>
    <!-- Spokes -->
    <line x1="0" y1="-20" x2="0" y2="-80" stroke="#3b82f6" stroke-width="3"/>
    <line x1="17" y1="-10" x2="69" y2="-40" stroke="#3b82f6" stroke-width="3"/>
    <line x1="17" y1="10" x2="69" y2="40" stroke="#3b82f6" stroke-width="3"/>
    <line x1="0" y1="20" x2="0" y2="80" stroke="#3b82f6" stroke-width="3"/>
    <line x1="-17" y1="10" x2="-69" y2="40" stroke="#3b82f6" stroke-width="3"/>
    <line x1="-17" y1="-10" x2="-69" y2="-40" stroke="#3b82f6" stroke-width="3"/>
    <!-- Pods -->
    <circle cx="0" cy="-80" r="12" fill="#6366f1" opacity="0.5"/>
    <circle cx="69" cy="-40" r="12" fill="#6366f1" opacity="0.5"/>
    <circle cx="69" cy="40" r="12" fill="#6366f1" opacity="0.5"/>
    <circle cx="0" cy="80" r="12" fill="#6366f1" opacity="0.5"/>
    <circle cx="-69" cy="40" r="12" fill="#6366f1" opacity="0.5"/>
    <circle cx="-69" cy="-40" r="12" fill="#6366f1" opacity="0.5"/>
  </g>
  <circle cx="120" cy="80" r="40" fill="#3b82f6" opacity="0.06"/>
  <circle cx="680" cy="370" r="50" fill="#6366f1" opacity="0.06"/>
</svg>
